<svg viewBox="254.39040000000003 49.44366051660517 485.012 104.34538745387454" xmlns="http://www.w3.org/2000/svg" style="max-height: 500px" width="485.012" height="104.34538745387454"><defs><style>.cls-1{fill:#e4181f;}.cls-2{fill:none;opacity:0.77;}</style></defs><title>пастарь_логотип_осн_кр</title><g data-name="Слой 2" id="Слой_2"><g data-name="Слой 8" id="Слой_8"><path d="M105.74,112.23a2,2,0,0,0,.64-.1.67.67,0,0,0,.35-.37,2.46,2.46,0,0,0,.12-.89v-6a13,13,0,0,1,.06-1.41l-1.17,0v-1.2h10.85v1a2.25,2.25,0,0,0-.64.1.67.67,0,0,0-.35.37,2.48,2.48,0,0,0-.12.9v6a10.58,10.58,0,0,1-.07,1.41c.34,0,.73,0,1.18,0v1.21h-4.5v-1a1.94,1.94,0,0,0,.64-.1.67.67,0,0,0,.35-.37,2.46,2.46,0,0,0,.12-.89v-7.41l-3,.05a2,2,0,0,0-.63.1.65.65,0,0,0-.34.38,2.43,2.43,0,0,0-.12.88v5.82a13,13,0,0,1-.06,1.41c.34,0,.73,0,1.18,0v1.21h-4.5Z" class="cls-1"/><path d="M118.65,112.18a1.05,1.05,0,0,0,.68-.23,1.86,1.86,0,0,0,.43-.57c.1-.23.23-.56.39-1l3.06-8.4h1.1l3.34,8.55q.12.32.27.78a4.59,4.59,0,0,1,.17.77c.34,0,.65,0,.91,0v1.21h-4.22v-1q.75,0,.75-.63a2.2,2.2,0,0,0-.17-.75l-.31-.86-3.41.06-.25.74-.21.56c-.11.3-.21.53-.29.71.33,0,.7,0,1.11,0v1.26h-3.35Zm6-3.31-.72-2a13.93,13.93,0,0,1-.6-2.14h0a19.12,19.12,0,0,1-.58,2.07l-.71,2Z" class="cls-1"/><path d="M133.08,112.78a5,5,0,0,1-1.9-2,6,6,0,0,1-.68-2.83,6.51,6.51,0,0,1,.64-2.84,5.42,5.42,0,0,1,1.87-2.21,5.19,5.19,0,0,1,3-.84,4.92,4.92,0,0,1,1.36.2,5.73,5.73,0,0,1,1.34.56h0l-.07-.66h1.21v3.66h-1c-.28-1.74-1.16-2.61-2.63-2.64a2.66,2.66,0,0,0-1.78.62,3.73,3.73,0,0,0-1.09,1.64,6.59,6.59,0,0,0-.36,2.2,6.86,6.86,0,0,0,.39,2.4,3.68,3.68,0,0,0,1.13,1.64,2.76,2.76,0,0,0,1.77.59,4.21,4.21,0,0,0,2-.52,5,5,0,0,0,1.62-1.41l.76.69a5.77,5.77,0,0,1-2.28,2,6.1,6.1,0,0,1-2.45.54A5.32,5.32,0,0,1,133.08,112.78Z" class="cls-1"/><path d="M144.78,112.23a2,2,0,0,0,.64-.1.67.67,0,0,0,.35-.37,2.46,2.46,0,0,0,.12-.89v-7.52h-.72a1.79,1.79,0,0,0-1.43.63,2.9,2.9,0,0,0-.5,1.85h-1l.08-3.54h9.51l.09,3.54h-1a2.92,2.92,0,0,0-.51-1.87,1.66,1.66,0,0,0-1.42-.62h-.75v7.35a10,10,0,0,1-.07,1.41c.35,0,.77,0,1.26,0v1.21h-4.58Z" class="cls-1"/><path d="M152.59,112.18a1,1,0,0,0,.68-.23,1.72,1.72,0,0,0,.43-.57c.11-.23.24-.56.39-1l3.06-8.4h1.1l3.34,8.55c.09.21.17.47.27.78a4.59,4.59,0,0,1,.17.77c.35,0,.65,0,.91,0v1.21h-4.22v-1q.75,0,.75-.63a2,2,0,0,0-.17-.75L159,110l-3.41.06-.25.74-.21.56a7.21,7.21,0,0,1-.29.71c.34,0,.71,0,1.11,0v1.26h-3.35Zm6-3.31-.73-2a12.7,12.7,0,0,1-.59-2.14h0a17.08,17.08,0,0,1-.58,2.07l-.7,2Z" class="cls-1"/><path d="M164.62,108.58a1.25,1.25,0,0,1,.51-1.06,2.38,2.38,0,0,1,1.47-.39,3.54,3.54,0,0,1,1,.13,8.88,8.88,0,0,1,1.06.36c.43.16.78.27,1.07.35a3.36,3.36,0,0,0,.92.12,1.29,1.29,0,0,0,.66-.16.51.51,0,0,0,.25-.45.76.76,0,0,0,0-.17h1.71a2,2,0,0,1,.06.5,1.24,1.24,0,0,1-.52,1.07,2.35,2.35,0,0,1-1.44.39,5,5,0,0,1-1.24-.14,10.85,10.85,0,0,1-1.24-.4c-.35-.13-.64-.23-.88-.3a2.76,2.76,0,0,0-.77-.1,1.14,1.14,0,0,0-.65.16.52.52,0,0,0-.24.46.76.76,0,0,0,0,.17l-1.66,0A2.07,2.07,0,0,1,164.62,108.58Z" class="cls-1"/><path d="M176.32,112.23a1.94,1.94,0,0,0,.64-.1.67.67,0,0,0,.35-.37,2.46,2.46,0,0,0,.12-.89v-6a10.58,10.58,0,0,1,.07-1.41l-1.18,0v-1.2h8.31l.08,3h-1a1.91,1.91,0,0,0-.56-1.6,2.06,2.06,0,0,0-1.35-.42h-1a1.44,1.44,0,0,0-.6.1.63.63,0,0,0-.33.38,2.46,2.46,0,0,0-.12.89v2.19l.94,0a7.92,7.92,0,0,1,3,.37,2.59,2.59,0,0,1,1.45,1.14,3.67,3.67,0,0,1,.37,1.72,2.84,2.84,0,0,1-1.05,2.36,4.34,4.34,0,0,1-2.76.83h-5.33Zm4.85-.09a1.84,1.84,0,0,0,1.38-.62A2.31,2.31,0,0,0,183,110a1.94,1.94,0,0,0-.57-1.58A2.23,2.23,0,0,0,181,108h-.68l-.59,0v2.77a10.29,10.29,0,0,1-.07,1.38Z" class="cls-1"/><path d="M187.17,112.18a1.06,1.06,0,0,0,.69-.23,1.86,1.86,0,0,0,.43-.57c.1-.23.23-.56.39-1l3.06-8.4h1.1l3.34,8.55c.08.21.17.47.26.78a3.9,3.9,0,0,1,.18.77c.34,0,.65,0,.91,0v1.21h-4.22v-1q.75,0,.75-.63a2.2,2.2,0,0,0-.17-.75l-.32-.86-3.4.06-.25.74-.21.56c-.11.3-.21.53-.29.71.33,0,.7,0,1.11,0v1.26h-3.36Zm6-3.31-.72-2a13.93,13.93,0,0,1-.6-2.14h0a19.12,19.12,0,0,1-.58,2.07l-.71,2Z" class="cls-1"/><path d="M199.58,112.23a1.94,1.94,0,0,0,.64-.1.64.64,0,0,0,.35-.37,2.42,2.42,0,0,0,.13-.89v-6a13,13,0,0,1,.06-1.41l-1.18,0v-1.2l4.46,0a5.54,5.54,0,0,1,3.31.84,3,3,0,0,1,1.2,2.6,3.15,3.15,0,0,1-.5,1.71,3.7,3.7,0,0,1-1.5,1.33,5.64,5.64,0,0,1-2.45.57H203v1.38a13.24,13.24,0,0,1-.06,1.42c.33,0,.77,0,1.33,0v1.21h-4.66Zm5.95-4.7a2.6,2.6,0,0,0,.59-1.86c0-1.54-.7-2.32-2.1-2.32a1.13,1.13,0,0,0-.8.24,1.4,1.4,0,0,0-.25,1v3.53a5.12,5.12,0,0,0,.7,0A2.4,2.4,0,0,0,205.53,107.53Z" class="cls-1"/><path d="M157.14,86.05c49.34,0,91,9.94,91,21.71s-41.68,21.71-91,21.71-91-9.94-91-21.71,41.68-21.71,91-21.71m0-1c-50.8,0-92,10.15-92,22.68s41.19,22.68,92,22.68,92-10.15,92-22.68-41.19-22.68-92-22.68Z" class="cls-1"/><path d="M268.83,85h58.8v45.46H311.89V95.38H284.56v35.06H268.83Z" class="cls-1"/><path d="M436.3,93.91q-9.75,0-15,3.59a12.58,12.58,0,0,0,0,20.43q5.25,3.58,15,3.58a55.5,55.5,0,0,0,9.53-.82,50.25,50.25,0,0,0,8.69-2.3l.74,10.49a44.48,44.48,0,0,1-8.79,2.16,71.68,71.68,0,0,1-10.81.78q-17,0-26.27-6.26t-9.25-17.85q0-11.5,9.25-17.8t26.27-6.31q11.5,0,19.6,3L454.52,97A54.59,54.59,0,0,0,436.3,93.91Z" class="cls-1"/><path d="M517.28,95.38H495.47v35.06H479.74V95.38H457.93V85h59.35Z" class="cls-1"/><path d="M558.32,114.06h-.74a17.93,17.93,0,0,1-3.08,8.74,18.87,18.87,0,0,1-7.91,6.49A29.52,29.52,0,0,1,534,131.73q-10,0-15.1-3.64a11.55,11.55,0,0,1-5.06-9.89q0-6.9,6.31-10.49t16.88-3.59a159.52,159.52,0,0,1,20.34,1.2l-.09-1a9.26,9.26,0,0,0-4.19-7.6q-3.92-2.61-11.18-2.62a60.56,60.56,0,0,0-20.71,3.78l-1.38-10.49a57.4,57.4,0,0,1,11.23-2.81,82.3,82.3,0,0,1,12.7-1q14.72,0,22,5.2A16.78,16.78,0,0,1,573,103.2v27.24H561.54Zm-25.58,6.35a15.38,15.38,0,0,0,7.91,1.75q7.36,0,12.19-3.45t4.74-10.26l.09.37-.09-.46q-6.62-.47-13.43-.47c-4.67,0-8.22.64-10.68,1.89a6,6,0,0,0-3.68,5.57A5.54,5.54,0,0,0,532.74,120.41Z" class="cls-1"/><path d="M582.43,85h11.5l3.59,17.4h.83a19.63,19.63,0,0,1,7.41-13.72q6.39-5.05,17.06-5.06,13.06,0,20.11,6.31t7,17.8q0,11.51-6.81,17.81t-19.42,6.3q-10.95,0-17.52-4.92T598.35,113h-.65l.56,15.09v18H582.43Zm21.25,32.81q4.89,3.54,13.9,3.54,7.9,0,12.28-3.54t4.38-10.08q0-6.52-4.38-10.07t-12.37-3.55q-8.93,0-13.81,3.55a11.7,11.7,0,0,0-4.87,10.07A11.71,11.71,0,0,0,603.68,117.79Z" class="cls-1"/><path d="M671.6,85V96.39h23.92q11.13,0,16.84,4.37t5.71,12.66a15,15,0,0,1-5.76,12.47q-5.74,4.54-16.79,4.55H655.86V85Zm22.63,35.43q4,0,6.08-1.84a7.52,7.52,0,0,0,0-10.26q-2-1.89-6.08-1.89H671.6v14Z" class="cls-1"/><path d="M378.88,114.06h-.73a18,18,0,0,1-3.09,8.74,18.8,18.8,0,0,1-7.91,6.49,29.49,29.49,0,0,1-12.56,2.44q-10,0-15.09-3.64a11.52,11.52,0,0,1-5.06-9.89q0-6.9,6.3-10.49t16.89-3.59a159.36,159.36,0,0,1,20.33,1.2l-.09-1a9.24,9.24,0,0,0-4.19-7.6q-3.92-2.61-11.18-2.62a60.45,60.45,0,0,0-20.7,3.78l-1.38-10.49a57.11,57.11,0,0,1,11.22-2.81,82.49,82.49,0,0,1,12.7-1q14.73,0,22,5.2a16.78,16.78,0,0,1,7.22,14.4v27.24H382.1Zm-25.58,6.35a15.4,15.4,0,0,0,7.92,1.75q7.35,0,12.19-3.45t4.74-10.26l.09.37-.09-.46q-6.63-.47-13.44-.47c-4.66,0-8.22.64-10.67,1.89a6,6,0,0,0-3.68,5.57A5.55,5.55,0,0,0,353.3,120.41Z" class="cls-1"/><path d="M341,71.73a5.5,5.5,0,0,1,2.4-4.74,11.45,11.45,0,0,1,6.71-1.7,22.08,22.08,0,0,1,6.22.83q2.81.82,6.94,2.48a69.33,69.33,0,0,0,7.32,2.63,25.56,25.56,0,0,0,6.95.87,8.33,8.33,0,0,0,4.78-1.2,3.78,3.78,0,0,0,1.75-3.31,8.22,8.22,0,0,0-.18-1.19l4,.09a8.4,8.4,0,0,1,.28,2.11,5.56,5.56,0,0,1-2.48,4.79,11.71,11.71,0,0,1-6.81,1.75,29,29,0,0,1-7.78-1,68.76,68.76,0,0,1-7.87-2.81,58.32,58.32,0,0,0-6.25-2.3,20.09,20.09,0,0,0-5.53-.73,7.53,7.53,0,0,0-4.6,1.24,3.9,3.9,0,0,0-1.65,3.27,7.88,7.88,0,0,0,.18,1.28l-4.14-.18A9.3,9.3,0,0,1,341,71.73Z" class="cls-1"/><rect height="217.52" width="803" class="cls-2"/></g></g></svg>