<svg xmlns="http://www.w3.org/2000/svg" viewBox="0 0 210.28 222.58"><defs><style>.cls-1{fill:#171423;}.cls-2{fill:#e4181f;}</style></defs><title>па_штамп_2_чернильн_красн</title><g id="Слой_2" data-name="Слой 2"><g id="Слой_8" data-name="Слой 8"><path class="cls-1" d="M185.65,179.86a.79.79,0,0,1-.61-1.3A103.67,103.67,0,0,0,199,68.92a104.59,104.59,0,0,0-26.13-34.55.8.8,0,1,1,1-1.21,106.44,106.44,0,0,1,26.54,35.08,105,105,0,0,1-14.18,111.33A.81.81,0,0,1,185.65,179.86Z"/><path class="cls-1" d="M25.9,181.38a.79.79,0,0,1-.6-.28A105.24,105.24,0,0,1,9.83,68.24,106.3,106.3,0,0,1,36.37,33.16a.8.8,0,0,1,1,1.21A104.59,104.59,0,0,0,11.28,68.92,103.43,103.43,0,0,0,26.51,180.06a.81.81,0,0,1-.09,1.13A.78.78,0,0,1,25.9,181.38Z"/><path class="cls-1" d="M31.06,192.05a2.84,2.84,0,0,0,.75.44.88.88,0,0,0,.66-.09,3.06,3.06,0,0,0,.89-.81l5-6.18a16.87,16.87,0,0,1,1.26-1.4l-1.25-.94,1-1.24L50.59,191,49.72,192a2.76,2.76,0,0,0-.75-.43.86.86,0,0,0-.67.08,3.44,3.44,0,0,0-.88.82l-5.05,6.17a16.87,16.87,0,0,1-1.26,1.4c.37.25.79.56,1.25.94l-1,1.24-4.63-3.79.87-1.06a2.84,2.84,0,0,0,.75.44.88.88,0,0,0,.66-.09,3.14,3.14,0,0,0,.88-.82l6.24-7.6L43,186.85a2.49,2.49,0,0,0-.73-.42.83.83,0,0,0-.67.1,3.39,3.39,0,0,0-.86.81l-4.9,6a15.38,15.38,0,0,1-1.26,1.4c.38.25.79.57,1.25.94l-1,1.25-4.63-3.79Z"/><path class="cls-1" d="M47.41,204.58a1.36,1.36,0,0,0,1,.16,2.43,2.43,0,0,0,.87-.39q.39-.3,1.08-.9l8.9-7.84,1.28.7L59,208.41c0,.29-.1.65-.18,1.07a7,7,0,0,1-.29,1c.42.18.78.35,1.09.52l-.77,1.41-4.92-2.68.66-1.21c.58.32,1,.23,1.27-.25a2.71,2.71,0,0,0,.28-1l.18-1.21-4-2.09-.76.7-.6.52c-.32.27-.58.49-.79.64.41.18.85.4,1.33.65l-.8,1.47-3.92-2.14Zm9.12,0,.4-2.74a17.63,17.63,0,0,1,.67-2.89h0a24.53,24.53,0,0,1-2,2l-2.12,1.93Z"/><path class="cls-1" d="M67.47,215.16a6.66,6.66,0,0,1-1.53-3.34,7.85,7.85,0,0,1,.35-3.85,8.8,8.8,0,0,1,2-3.32,7.08,7.08,0,0,1,3.3-2,6.71,6.71,0,0,1,4.11.2,6.56,6.56,0,0,1,1.62.83A7.47,7.47,0,0,1,78.78,205h0l.2-.86,1.52.51L79,209.25l-1.28-.43q.57-3.45-2.2-4.44a3.52,3.52,0,0,0-2.5,0,4.85,4.85,0,0,0-2.07,1.6,8.8,8.8,0,0,0-1.39,2.61,8.9,8.9,0,0,0-.52,3.19,4.89,4.89,0,0,0,.72,2.54,3.63,3.63,0,0,0,2,1.49,5.44,5.44,0,0,0,2.7.19A6.39,6.39,0,0,0,77,214.94l.66,1.19a7.59,7.59,0,0,1-3.7,1.51,8.17,8.17,0,0,1-3.31-.36A7.06,7.06,0,0,1,67.47,215.16Z"/><path class="cls-1" d="M86,219.44a2.7,2.7,0,0,0,.87,0,.81.81,0,0,0,.52-.41,3.26,3.26,0,0,0,.35-1.15L89.21,208l-.95-.15a2.4,2.4,0,0,0-2,.55,3.78,3.78,0,0,0-1,2.33l-1.36-.21.8-4.64,12.49,1.88-.58,4.68-1.36-.21a3.88,3.88,0,0,0-.3-2.56,2.24,2.24,0,0,0-1.74-1.1l-1-.14-1.45,9.66a14.18,14.18,0,0,1-.36,1.84c.46,0,1,.09,1.65.19l-.24,1.59-6-.91Z"/><path class="cls-1" d="M99.65,221.14a1.28,1.28,0,0,0,.9-.33,2.12,2.12,0,0,0,.56-.76c.13-.31.3-.74.5-1.32l3.88-11.21,1.46,0,4.62,11.28c.12.28.24.62.37,1a5.58,5.58,0,0,1,.25,1c.46-.05.86-.08,1.21-.09l0,1.61-5.6.09,0-1.38c.67,0,1-.29,1-.85a2.66,2.66,0,0,0-.24-1l-.44-1.14-4.52.15-.32,1L103,220c-.14.39-.26.71-.37,1,.45-.05.94-.08,1.48-.09l0,1.67-4.46.07Zm7.91-4.52-1-2.59a15.84,15.84,0,0,1-.84-2.84h0A25,25,0,0,1,105,214l-.89,2.72Z"/><path class="cls-1" d="M118.08,215.64a1.65,1.65,0,0,1,.41-1.5,3.14,3.14,0,0,1,1.83-.86,5,5,0,0,1,1.33-.08c.42,0,.91.11,1.47.22s1.09.17,1.48.2a4,4,0,0,0,1.23-.07,1.53,1.53,0,0,0,.82-.37.8.8,0,0,0,.16-.87l2.24-.41a2.65,2.65,0,0,1,.2.64,1.68,1.68,0,0,1-.42,1.53,3.14,3.14,0,0,1-1.79.85,7.09,7.09,0,0,1-1.65.13,15,15,0,0,1-1.72-.23c-.48-.09-.89-.15-1.22-.19a3.63,3.63,0,0,0-1,.06,1.53,1.53,0,0,0-.81.37.7.7,0,0,0-.2.66.75.75,0,0,0,.06.22l-2.18.34A2.41,2.41,0,0,1,118.08,215.64Z"/><path class="cls-1" d="M137.47,216.39a2.77,2.77,0,0,0,.75-.42.87.87,0,0,0,.26-.62,3.07,3.07,0,0,0-.26-1.17l-2.78-7.48a16.44,16.44,0,0,1-.57-1.79l-1.44.6-.56-1.5,10.35-3.85,1.51,3.76-1.27.47a2.59,2.59,0,0,0-1.44-1.74,2.73,2.73,0,0,0-1.88.1l-1.26.49a2,2,0,0,0-.7.4.83.83,0,0,0-.25.63,3.43,3.43,0,0,0,.27,1.16l1,2.73,1.16-.47a10.88,10.88,0,0,1,3.9-.93,3.45,3.45,0,0,1,2.32.75,4.81,4.81,0,0,1,1.27,2,3.73,3.73,0,0,1-.22,3.41,5.68,5.68,0,0,1-3,2.31L138,217.68Zm6-2.36a2.4,2.4,0,0,0,1.44-1.4,3.1,3.1,0,0,0-.13-2.08,2.57,2.57,0,0,0-1.45-1.7,3,3,0,0,0-2,.09l-.84.32-.73.29L141,213a15.3,15.3,0,0,1,.56,1.75C142.43,214.44,143.06,214.2,143.46,214Z"/><path class="cls-1" d="M154,209.7a1.37,1.37,0,0,0,.63-.72,2.34,2.34,0,0,0,.11-.95c0-.33-.11-.79-.21-1.39L152.39,195l1.26-.74,9.57,7.55c.24.19.52.42.83.71a4.84,4.84,0,0,1,.72.78c.37-.27.71-.49,1-.67l.81,1.39-4.83,2.83-.7-1.18c.58-.34.72-.75.44-1.23a2.79,2.79,0,0,0-.7-.75l-.94-.77L156,205.25l.21,1c0,.12.07.38.14.79s.11.74.14,1c.36-.26.78-.52,1.24-.8l.85,1.44L154.73,211Zm4.66-7.83-2.14-1.76a16.41,16.41,0,0,1-2.13-2.06h0a23.75,23.75,0,0,1,.73,2.76l.56,2.82Z"/><path class="cls-1" d="M170.87,199.15a3.15,3.15,0,0,0,.56-.66.85.85,0,0,0,0-.67,3,3,0,0,0-.64-1l-5.15-6.1c-.5-.59-.88-1.09-1.15-1.48l-1.15,1.05-1-1.22,4.5-3.85a7.33,7.33,0,0,1,4.08-2,4,4,0,0,1,3.44,1.6,4.18,4.18,0,0,1,1,2.17,4.89,4.89,0,0,1-.38,2.64,7.54,7.54,0,0,1-2,2.68l-.61.54-.53.42,1.18,1.4a16.93,16.93,0,0,1,1.16,1.51c.31-.32.75-.72,1.31-1.2l1,1.23-4.73,4Zm2-9.88a3.5,3.5,0,0,0-1-2.39c-1.32-1.57-2.7-1.75-4.12-.55a1.55,1.55,0,0,0-.61.93,1.91,1.91,0,0,0,.61,1.23l3,3.58a6.08,6.08,0,0,0,.75-.56A3.18,3.18,0,0,0,172.87,189.27Z"/><path class="cls-1" d="M49,30.46a2.75,2.75,0,0,0,.67-.55.85.85,0,0,0,.15-.65,3,3,0,0,0-.45-1.11l-4-6.9a16.42,16.42,0,0,1-.87-1.66l-1.32.84-.81-1.38,12.46-7.27L55.45,13a3,3,0,0,0-.67.54.89.89,0,0,0-.15.66,3.05,3.05,0,0,0,.46,1.11l4,6.89A17.56,17.56,0,0,1,60,23.83q.56-.39,1.32-.84l.81,1.39-5.16,3-.7-1.19a2.76,2.76,0,0,0,.67-.54.89.89,0,0,0,.15-.66,3.18,3.18,0,0,0-.45-1.11l-5-8.49-3.41,2.06a2.75,2.75,0,0,0-.65.53.84.84,0,0,0-.13.66,3.42,3.42,0,0,0,.45,1.1l3.9,6.68a16.42,16.42,0,0,1,.87,1.66q.56-.39,1.32-.84l.81,1.38-5.16,3Z"/><path class="cls-1" d="M66.07,21a1.35,1.35,0,0,0,.76-.59,2.21,2.21,0,0,0,.29-.91c0-.32,0-.79.06-1.4l.18-11.86,1.38-.48L76.66,15c.2.23.42.51.67.86a4.85,4.85,0,0,1,.56.9c.42-.19.79-.35,1.12-.46l.53,1.52-5.3,1.84-.45-1.3c.63-.22.85-.59.67-1.12a2.87,2.87,0,0,0-.54-.87l-.77-.94L68.9,17v1c0,.12,0,.39,0,.8s0,.76-.06,1c.41-.19.87-.37,1.38-.55l.55,1.58-4.21,1.46Zm6.1-6.77-1.76-2.15a16.83,16.83,0,0,1-1.69-2.43h0a26.76,26.76,0,0,1,.17,2.85v2.87Z"/><path class="cls-1" d="M86.88,15.72A6.78,6.78,0,0,1,84,13.46a8,8,0,0,1-1.46-3.58A8.84,8.84,0,0,1,82.75,6a7.3,7.3,0,0,1,2-3.28A7.14,7.14,0,0,1,90.32,1a7.51,7.51,0,0,1,1.88.47h0L92,.61,93.59.37l.75,4.79L93,5.37Q91.91,2,89,2.46a3.5,3.5,0,0,0-2.21,1.17A5,5,0,0,0,85.7,6a8.63,8.63,0,0,0,0,3,9.17,9.17,0,0,0,1,3.07A4.87,4.87,0,0,0,88.5,14a3.64,3.64,0,0,0,2.45.41,5.47,5.47,0,0,0,2.48-1.08,6.51,6.51,0,0,0,1.84-2.19l1.13.75a7.61,7.61,0,0,1-2.59,3.06,8.17,8.17,0,0,1-3.1,1.21A7.21,7.21,0,0,1,86.88,15.72Z"/><path class="cls-1" d="M104.62,13.29a2.93,2.93,0,0,0,.86-.12.85.85,0,0,0,.47-.48,3.14,3.14,0,0,0,.2-1.18l.23-10-1,0a2.35,2.35,0,0,0-1.91.79,3.81,3.81,0,0,0-.73,2.44l-1.37,0L101.63,0l12.62.3V5l-1.37,0a4,4,0,0,0-.62-2.51,2.22,2.22,0,0,0-1.87-.86l-1,0-.23,9.77a12.15,12.15,0,0,1-.13,1.88c.46,0,1,0,1.67,0l0,1.61-6.08-.15Z"/><path class="cls-1" d="M117.43,13.77a1.32,1.32,0,0,0,.95-.14,2.26,2.26,0,0,0,.71-.63c.19-.27.45-.66.76-1.19L126,1.64l1.43.27,2.21,12a10.06,10.06,0,0,1,.15,1.08,4.81,4.81,0,0,1,0,1c.46.05.86.1,1.2.17l-.3,1.58-5.51-1.07.26-1.35q1,.2,1.14-.63a3,3,0,0,0,0-1l-.2-1.21-4.45-.77-.51.9c-.07.1-.21.33-.42.68s-.4.64-.56.85c.45,0,.93.12,1.47.22L121.54,16l-4.38-.84ZM126.1,11l-.45-2.74a18.34,18.34,0,0,1-.23-3h0a25.21,25.21,0,0,1-1.28,2.55l-1.43,2.48Z"/><path class="cls-1" d="M135.86,18a2.87,2.87,0,0,0,.85.18.87.87,0,0,0,.6-.29,3,3,0,0,0,.58-1.05l2.88-7.44a16.5,16.5,0,0,1,.76-1.72l-1.48-.51.58-1.49,5.53,2.09a7.41,7.41,0,0,1,3.71,2.63,3.94,3.94,0,0,1,.24,3.79A4.17,4.17,0,0,1,148.67,16a4.78,4.78,0,0,1-2.5.93,7.59,7.59,0,0,1-3.31-.47l-.76-.27-.64-.27-.66,1.71a16.2,16.2,0,0,1-.76,1.74,17.21,17.21,0,0,1,1.67.58l-.57,1.49-5.78-2.23Zm9.63-3a3.51,3.51,0,0,0,1.62-2q1.11-2.88-1.5-3.88a1.51,1.51,0,0,0-1.1-.1c-.28.12-.54.49-.79,1.13L142,14.5a6.74,6.74,0,0,0,.85.4A3.23,3.23,0,0,0,145.49,15Z"/><path class="cls-1" d="M151.85,24.73a2.65,2.65,0,0,0,.8.33.86.86,0,0,0,.64-.18,3.13,3.13,0,0,0,.76-.93l4.13-6.83a15.42,15.42,0,0,1,1-1.56l-1.37-.76.83-1.37,5.12,3.09-.71,1.18a3.07,3.07,0,0,0-.8-.33.93.93,0,0,0-.65.18,3.29,3.29,0,0,0-.75.93L159.38,21l1,.56q5.25,2.91,2.87,6.85a3.62,3.62,0,0,1-2.79,1.89,5.83,5.83,0,0,1-3.69-1l-5.63-3.41Zm5.14,3a2.4,2.4,0,0,0,2,.26,3.15,3.15,0,0,0,1.55-1.42,2.66,2.66,0,0,0,.47-2.15,2.89,2.89,0,0,0-1.37-1.56c-.44-.26-.78-.45-1-.56l-1.9,3.13a16.72,16.72,0,0,1-1,1.53C156.26,27.28,156.7,27.54,157,27.7Z"/><path class="cls-2" d="M163.22,99.06v0a181.51,181.51,0,0,1-3-22.46v0L160,62a2.35,2.35,0,0,0-.45-1.17,2.59,2.59,0,0,0-1.06-.46,19.32,19.32,0,0,0-7.93,1.9.91.91,0,0,1-1.28-.65l-1.19-6a1.54,1.54,0,0,0-1.71-1.25l-.23.06a20.26,20.26,0,0,0-9.79,4.79.92.92,0,0,1-1.11.13h0a29.45,29.45,0,0,0-3.42-1.86,1.61,1.61,0,0,0-1.93.82L120.3,76a.81.81,0,0,1-.27.31L95,94.16a.92.92,0,0,1-.58.17A101.74,101.74,0,0,0,45,105a1.53,1.53,0,1,0,1.45,2.7l0,0A98.06,98.06,0,0,1,79.57,98a76.63,76.63,0,0,1,15.51-.44h0a1.35,1.35,0,0,0,1-.33l.06,0,26.32-18.73a2.24,2.24,0,0,0,.44-.43l0-.07,8.72-16.09a1,1,0,0,1,.56-.44.9.9,0,0,1,.7.09,10,10,0,0,1,4.93,8c1,8.6-5.55,20.59-14.24,26.28l-.1.09a1.07,1.07,0,0,1-.41.21c-6.49,5.1-14,16.71-19.1,25.61-.35.61-.49.84-.57,1a1.68,1.68,0,0,0,.76,2.13,1.35,1.35,0,0,0,1,.15,1.77,1.77,0,0,0,1.09-.88c.12-.22,1.2-2.22,2.87-4.83a.94.94,0,0,1,.84-.42l10.23.85a1.69,1.69,0,0,0,1.07-.24h0c.5-.38,1.81-1.22,5.64-3.62,3.4-2.13,7.34-4.58,10.29-6.38a1.71,1.71,0,0,0,.63-2.22c-4.5-8.16-1.33-16.57.77-22.14a16.33,16.33,0,0,1,9.75-9.45.92.92,0,0,1,1.25.82L150,88c.31,6.21,1.82,14.14,4.51,23.54.68,2.55-1,5.22-2.82,6.63l-44.39,34.4-.08.06a9.55,9.55,0,0,1-6.57,1.16h0c-1.62-.36-3.6-.88-5.9-1.48l-4-1-.58-.15C74.49,146.93,50.81,140.6,29.92,145a1.54,1.54,0,0,0-1.17,1.94,1.73,1.73,0,0,0,.91,1.08,1.76,1.76,0,0,0,1,.09,70.65,70.65,0,0,1,14.64-1.44c16.14,0,32.55,4.49,44.35,7.71l.25.07,3.77,1c2.47.66,4.59,1.22,6.37,1.64a12.38,12.38,0,0,0,9-1.65.59.59,0,0,1,.14-.06l.09,0L153.12,121c3.19-2.55,4.74-6.16,4-9.42a.9.9,0,0,1,.35-.93C162.07,107.3,163.83,102.3,163.22,99.06ZM133.3,108c-2.92,1.79-6.22,3.88-8.88,5.55-1.91,1.2-3.55,2.24-4.5,2.82a.89.89,0,0,1-.48.13h-.07l-6.7-.57a.92.92,0,0,1-.74-.5.91.91,0,0,1,0-.89c2.13-3.38,7.67-11.7,13-16l.08-.06a36.45,36.45,0,0,0,5.68-4.81.91.91,0,0,1,1.55.77,23.21,23.21,0,0,0,1.39,12.42A.92.92,0,0,1,133.3,108Zm9.38-37.15a.9.9,0,0,1-.87.65h-.11a.91.91,0,0,1-.8-.86c0-.1,0-.21,0-.32a2.42,2.42,0,0,0-.07-.74.86.86,0,0,1-.06-.23,13.42,13.42,0,0,0-2.42-6.55.92.92,0,0,1,.09-1.18,16,16,0,0,1,5.71-3.32.92.92,0,0,1,.76,0,.89.89,0,0,1,.46.61l1.06,5,.06.16a.92.92,0,0,1-.25,1A12,12,0,0,0,142.68,70.83Zm14.73,35.81a.91.91,0,0,1-.67.3.83.83,0,0,1-.22,0,.91.91,0,0,1-.66-.65,84.69,84.69,0,0,1-3.16-18l-.36-15a1.39,1.39,0,0,0-.6-1.18l0,0a1.82,1.82,0,0,0-1.2-.33l-.35.09a29.32,29.32,0,0,0-3.14,1,.94.94,0,0,1-1-.19.9.9,0,0,1-.24-.94c1.94-6,8.3-7.33,10.21-7.61a.91.91,0,0,1,1,.89l.13,11.75a174.46,174.46,0,0,0,2.92,23.07C160.53,101.68,159.48,104.36,157.41,106.64Z"/></g></g></svg>